<svg width="210mm" height="30mm" version="1.1" viewBox="0 0 793.7 113.39" xmlns="http://www.w3.org/2000/svg" xmlns:xlink="http://www.w3.org/1999/xlink"><defs><linearGradient id="a"><stop stop-color="#ff1d1d" offset="0"/><stop stop-color="#ff8900" offset="1"/></linearGradient><clipPath id="j"><rect transform="scale(1,-1)" x="9.2886" y="-1323.4" width="576.21" height="632.15" fill-opacity=".42448" stroke-width="3.1362" style="paint-order:stroke fill markers"/></clipPath><filter id="i" x="-.097085" y="-.097085" width="1.2094" height="1.2094" color-interpolation-filters="sRGB"><feFlood flood-color="rgb(43,125,142)" flood-opacity=".50196" result="flood"/><feComposite in="flood" in2="SourceGraphic" operator="in" result="composite1"/><feGaussianBlur in="composite1" result="blur" stdDeviation="2"/><feOffset dx="1" dy="1" result="offset"/><feComposite in="SourceGraphic" in2="offset" result="composite2"/></filter><linearGradient id="k" x1="38.093" x2="70.03" y1="-1306.2" y2="-1306.2" gradientUnits="userSpaceOnUse" xlink:href="#a"/><filter id="h" x="-.025863" y="-.12187" width="1.0517" height="1.2437" color-interpolation-filters="sRGB"><feGaussianBlur stdDeviation="0.34416201"/></filter><linearGradient id="f" x1="38.093" x2="70.03" y1="-1306.2" y2="-1306.2" gradientTransform="rotate(20.614 77.579 -1305.5)" gradientUnits="userSpaceOnUse" xlink:href="#a"/><linearGradient id="e" x1="38.093" x2="70.03" y1="-1306.2" y2="-1306.2" gradientTransform="translate(-.24659 -5.9663)" gradientUnits="userSpaceOnUse" xlink:href="#a"/><linearGradient id="d" x1="38.093" x2="70.03" y1="-1306.2" y2="-1306.2" gradientTransform="rotate(-13.461 30.828 -1305.6)" gradientUnits="userSpaceOnUse" xlink:href="#a"/><linearGradient id="c" x1="38.093" x2="70.03" y1="-1306.2" y2="-1306.2" gradientTransform="rotate(-16.941 37.88 -1304.6)" gradientUnits="userSpaceOnUse" xlink:href="#a"/><linearGradient id="b" x1="38.093" x2="70.03" y1="-1306.2" y2="-1306.2" gradientTransform="rotate(42.392 71.199 -1304.8)" gradientUnits="userSpaceOnUse" xlink:href="#a"/><filter id="g" x="-.1094" y="-.066391" width="1.234" height="1.142" color-interpolation-filters="sRGB"><feFlood flood-color="rgb(38,19,0)" flood-opacity=".8" result="flood"/><feComposite in="flood" in2="SourceGraphic" operator="in" result="composite1"/><feGaussianBlur in="composite1" result="blur" stdDeviation="3"/><feOffset dx="1" dy="1" result="offset"/><feComposite in="SourceGraphic" in2="offset" result="composite2"/></filter></defs><g transform="matrix(1.3774 0 0 -1.3774 -12.795 1822.9)"><path transform="matrix(1 0 0 -1 0 2014.6)" d="m4.7894 692.25s89.386 17.52 142.15 13.038c54.882-4.6612 117.11-23.705 249.92-2.4193 24.215 3.881 58.59 9.5594 121.74 3.0202 11.18-1.1576 32.644-6.6995 74.12 8.047 15.833 5.6292 23.63 29.281 23.63 29.281s-27.804-11.458-53.768-13.635c-65.896-5.5236-115.52 23.992-189.42 13.678-55.158-7.6982-85.859 6.2918-145.62 12.931-35.492 3.9426-85.485-4.6015-126 4.6642-111.17 25.421-138.06-0.87737-138.06-0.87737" clip-path="url(#j)" fill="#90cbd6" stroke-width="3.1362" style="paint-order:stroke fill markers"/><circle transform="matrix(1 0 0 -1 1.6641e-7 2.3709e-5)" cx="49.727" cy="-1282.2" r="32.797" fill="#b4d5dc" filter="url(#i)" stroke="#48a9bc" stroke-width="3.1362" style="paint-order:stroke fill markers"/><g transform="matrix(1.0957 0 0 -1.0957 -9.4934 -130.18)" filter="url(#h)" stroke-width="3.1362" style="paint-order:stroke fill markers" aria-label="! ? ? ! !"><path d="m39.216-1304.8-0.80932 0.2465-1.7659-4.808 1.3609-0.4146zm0.48975 0.9428q0.03719 0.1221 0.02049 0.2456-0.01353 0.1178-0.07012 0.2241-0.05355 0.1-0.1482 0.1784-0.09026 0.077-0.20787 0.1122-0.12213 0.037-0.24465 0.021-0.11766-0.013-0.22252-0.065-0.1016-0.058-0.17855-0.1482-0.07825-0.095-0.11543-0.2167-0.03581-0.1176-0.02225-0.2354 0.01214-0.1224 0.06561-0.2225 0.05662-0.1062 0.14679-0.1832 0.09332-0.083 0.21544-0.12 0.11752-0.036 0.23648-0.02 0.12218 0.012 0.22394 0.07 0.10474 0.052 0.18307 0.1469 0.08145 0.089 0.11722 0.2064z" fill="url(#c)"/><path d="m48.366-1311.5q0.06051 0.2528 0.04359 0.5679-0.0169 0.3151-0.15866 0.6163-0.13713 0.3001-0.41817 0.5473-0.27757 0.2413-0.73723 0.3513l-1.0158 0.2431 0.25747 1.0757-1.1997 0.2872-0.4016-1.6778q-0.02971-0.1241-0.0091-0.2408 0.01956-0.1213 0.0779-0.2228 0.06295-0.1025 0.15766-0.1738 0.09818-0.077 0.22227-0.1071l1.6226-0.3885q0.23442-0.056 0.32534-0.2042 0.0955-0.1492 0.0383-0.3881l-0.12874-0.5379q-0.05612-0.2345-0.20533-0.3299-0.14922-0.096-0.38826-0.039l-3.8336 0.9176-0.28607-1.1951 3.8336-0.9177q0.25285-0.06 0.56884-0.04 0.31517 0.017 0.61063 0.1552 0.30011 0.1371 0.54262 0.4193 0.24249 0.2821 0.35252 0.7418zm-1.7995 4.4208q0.0297 0.1241 0.01014 0.2453-0.02065 0.1168-0.08358 0.2194-0.05956 0.096-0.15876 0.1692-0.0948 0.071-0.21889 0.1007-0.11954 0.028-0.24074 0.01-0.11665-0.02-0.21816-0.079-0.09789-0.064-0.17382-0.1577-0.07236-0.099-0.10206-0.2233-0.02861-0.1196-8e-3 -0.2363 0.02414-0.1225 0.08358-0.2193 0.06295-0.1026 0.15764-0.1738 0.09818-0.077 0.21772-0.1056 0.12409-0.03 0.24191 0 0.12131 0.02 0.21927 0.083 0.10138 0.058 0.17383 0.1578 0.07127 0.095 0.09987 0.2142z" fill="url(#d)"/><path d="m58.591-1313.2q0 0.2599-0.0898 0.5624t-0.29777 0.5624q-0.20324 0.26-0.53409 0.4349-0.32612 0.1701-0.79877 0.1701h-1.0445v1.106h-1.2336v-1.7251q0-0.1276 0.04726-0.2364 0.04726-0.1134 0.12761-0.1985 0.08508-0.085 0.19378-0.1323 0.11343-0.052 0.24105-0.052h1.6684q0.24105 0 0.36394-0.1229 0.12761-0.1229 0.12761-0.3686v-0.553q0-0.2411-0.12289-0.3687t-0.36866-0.1276h-3.9419v-1.2289h3.9419q0.25995 0 0.56245 0.094 0.30249 0.09 0.55772 0.2931 0.25995 0.2032 0.43011 0.5341 0.17015 0.3308 0.17015 0.8035zm-2.7791 3.8804q0 0.1276-0.04726 0.241-0.04726 0.1087-0.13234 0.1938-0.08035 0.08-0.19378 0.1276-0.10871 0.047-0.23632 0.047-0.12289 0-0.23632-0.047-0.10871-0.047-0.19378-0.1276-0.08035-0.085-0.13234-0.1938-0.04726-0.1134-0.04726-0.241 0-0.1229 0.04726-0.2316 0.05199-0.1135 0.13234-0.1938 0.08508-0.085 0.19378-0.1324 0.11344-0.052 0.23632-0.052 0.12761 0 0.23632 0.052 0.11344 0.047 0.19378 0.1324 0.08508 0.08 0.13234 0.1938 0.04726 0.1087 0.04726 0.2316z" fill="url(#e)"/><path d="m64.567-1309.2-0.79187-0.2979 1.5306-4.8881 1.3316 0.5009zm-0.18639 1.0459q-0.04492 0.1194-0.13351 0.2073-0.0825 0.085-0.1921 0.1348-0.10337 0.047-0.2263 0.051-0.1183 0.01-0.23332-0.038-0.11944-0.045-0.20907-0.1288-0.0852-0.082-0.13645-0.1877-0.04528-0.1078-0.05121-0.2263-0.0043-0.1228 0.04061-0.2422 0.04327-0.115 0.12577-0.2001 0.08419-0.09 0.18767-0.1365 0.10955-0.05 0.22799-0.056 0.12448-0.01 0.24392 0.036 0.11502 0.043 0.19846 0.1302 0.08962 0.084 0.13476 0.1922 0.05147 0.1048 0.05564 0.2279 0.01039 0.1201-0.03288 0.2351z" fill="url(#f)"/><path d="m69.899-1305.5-0.62484-0.5704 3.2349-3.9713 1.0507 0.9591zm-0.56114 0.9021q-0.08603 0.094-0.20088 0.143-0.10819 0.048-0.2284 0.054-0.11328 0-0.22915-0.036-0.11197-0.039-0.20273-0.1215-0.09425-0.086-0.14634-0.1972-0.0486-0.108-0.05709-0.2249-2e-3 -0.1169 0.03641-0.2291 0.04155-0.1156 0.12758-0.2099 0.08286-0.091 0.19105-0.1392 0.11142-0.052 0.22491-0.057 0.12014-0.01 0.23238 0.033 0.11884 0.038 0.21309 0.1241 0.09076 0.083 0.13599 0.1945 0.05209 0.1112 0.05386 0.2285 0.0089 0.1164-0.03292 0.2323-0.03489 0.1154-0.11775 0.2061z" fill="url(#b)"/></g><g transform="matrix(.43908 0 0 .43908 -48.568 1077.8)" filter="url(#g)"><path transform="translate(194.58 469.86)" d="m0 0c-2.833-0.625-5.2619-2.8813-4.933-5.535l0.35408-2.8569c0.2888-2.3302 1.62-4.363 3.933-5.242z" fill="#deaa87"/><path transform="translate(250.02 458.62)" d="m-0.1589-0.63559c1.296 0.91 2.2279 1.8444 2.2018 4.0886l0.038152 4.5337c-0.2 1.81-2.095 3.4863-3.721 4.0153z" fill="#deaa87"/><path transform="translate(224.62 420.64)" d="m0 0h-4.483c-8.564 0-16.186 4.004-21.114 10.234l-0.19-0.027 0.26-19.83s8.9481-10.836 22.194-9.6719c23.275 2.0461 25.798 6.9574 25.798 6.9574l0.076103 24.553c-4.805-7.352-13.103-12.215-22.541-12.215" fill="#e9c6af"/><path transform="translate(247.07 424.4)" d="m0 0 0.089 8.461c-4.805-7.352-13.103-12.215-22.541-12.215h-4.484c-8.563 0-16.185 4.004-21.113 10.234l-0.19-0.027 0.183-13.976c5.565-2.889 13.038-4.34 21.105-3.668l2.671 0.222c10.609 0.883 19.602 5.217 24.28 10.969" fill="#dba37e"/><path transform="translate(251.53 447.55)" d="m0 0c0-14.863-12.049-26.91-26.911-26.91h-4.484c-14.862 0-26.911 12.047-26.911 26.91l1.525 25.117c0 14.863 9.507 22.555 24.368 22.555h4.484c14.863 0 21.233-7.621 24.499-22.555z" fill="#e9c6af"/><path transform="translate(249.93 438.53)" d="m0 0c0.022253-6.4134-4.7906-11.665-10.176-14.533-5.7304-3.1575-12.377-4.1479-18.848-3.9405-8.1141 0.02581-16.689 2.4976-22.404 8.5168-3.7256 3.7922-5.2239 9.6567-3.5086 14.71 1.9596 5.0951 7.4313 7.4624 12.398 8.6465 7.0778 1.636 14.417 1.5198 21.628 1.166 6.0838-0.5387 12.602-1.5746 17.388-5.6887 2.5441-2.217 3.7213-5.5499 3.5235-8.8779z" fill="#6d3816"/><path transform="translate(235.23 463.92)" d="m0 0c0-0.676-0.549-1.225-1.226-1.225-0.675 0-1.223 0.549-1.223 1.225s0.548 1.225 1.223 1.225c0.677 0 1.226-0.549 1.226-1.225" fill="#214478"/><path transform="translate(211.02 463.92)" d="m0 0c0-0.676-0.549-1.225-1.226-1.225-0.676 0-1.224 0.549-1.224 1.225s0.548 1.225 1.224 1.225c0.677 0 1.226-0.549 1.226-1.225" fill="#214478"/><path transform="matrix(1 0 0 .71809 240.96 469.67)" d="m0 0c0-0.564-0.457-1.021-1.021-1.021h-13.065c-0.564 0-1.02 0.457-1.02 1.021s0.456 1.021 1.02 1.021h13.065c0.564 0 1.021-0.457 1.021-1.021" fill="#502d16"/><path transform="matrix(1 0 0 .66461 217.69 469.63)" d="m0 0c0-0.678-0.548-1.227-1.225-1.227h-11.432c-0.677 0-1.225 0.549-1.225 1.227 0 0.676 0.548 1.225 1.225 1.225h11.432c0.677 0 1.225-0.549 1.225-1.225" fill="#502d16"/><path transform="rotate(3.7745 -6598.4 3397.7)" d="m0 0c1.338-3.107 7.163-5.447 14.146-5.447 6.984 0 12.808 2.34 14.146 5.447z" fill="#fff"/><path transform="matrix(1 0 0 .94874 224.96 454.67)" d="m0 0c0-1.576-1.43-2.854-3.192-2.854-1.765 0-3.195 1.278-3.195 2.854v7.904c0 1.575 1.43 2.854 3.195 2.854 1.762 0 3.192-1.279 3.192-2.854z" fill="#d38d5f"/><g transform="translate(243.2 464.6)" fill="#35435a"><path transform="translate(-301.03 -274.23)" d="m258.71 269.67h16.74v6.941h-16.74zm17.558-0.817h-18.374v8.574h18.374z"/><path transform="translate(-301.03 -274.23)" d="m283.61 269.67h16.74v6.941h-16.74zm17.558-0.817h-18.374v8.574h18.374z"/><path transform="translate(-17.949 -.64048)" d="m0 0h-7.214c-0.225 0-0.408 0.184-0.408 0.408 0 0.227 0.183 0.41 0.408 0.41h7.214c0.226 0 0.408-0.183 0.408-0.41 0-0.224-0.182-0.408-0.408-0.408"/><path transform="translate(-43.144 -.1367)" d="m0 0c-0.098 0-0.196 0.035-0.274 0.105l-5.716 5.172c-0.167 0.153-0.18 0.41-0.03 0.577 0.153 0.167 0.413 0.179 0.579 0.029l5.715-5.17c0.167-0.152 0.18-0.412 0.03-0.578-0.081-0.088-0.193-0.135-0.304-0.135"/><path d="m0 0c-0.102 0-0.202 0.037-0.281 0.111-0.164 0.157-0.17 0.416-0.015 0.578l5.309 5.581c0.156 0.164 0.414 0.169 0.577 0.015 0.164-0.156 0.17-0.416 0.014-0.578l-5.308-5.58c-0.08-0.084-0.189-0.127-0.296-0.127"/></g><g transform="matrix(1.0053 0 0 1.0023 -.89151 -1.1908)" fill="#392a20"><path transform="translate(241.7 495.36)" d="m0 0c2.9082 1.2676 6.4724-0.37775 7.2181-3.4976 1.3836-3.5839-0.1963-7.2992 0.21028-10.968-0.018038-3.2258 0.58239-6.5304-0.10068-9.7099-1.4486-1.3424 0.85404-6.2718-1.1313-6.015-1.931 3.0705-1.781 6.9367-2.4371 10.413-0.67616 6.6937-2.3748 13.21-3.7593 19.778z"/><path transform="matrix(1 0 0 .9556 193.93 462.49)" d="m0 0c3.9649 1.0136 4.9174 5.3591 4.9028 8.7214 0.29949 3.1771-1.0347 6.5449 0.7834 9.4985 1.3888 2.9221 5.1713 4.4213 8.3426 3.2323 5.8077-1.5507 10.651-5.8224 16.91-5.9282 10.468-1.4711 22.311 4.1584 25.535 14.02 2.2248 5.8913-0.0846 12.784-5.2361 16.629-5.2791 4.3278-13.481 4.1762-19.054 0.43442-4.0529-2.5509-7.0375-6.8921-7.0178-11.582-3.316-3.22-8.404-1.8557-12.588-1.7596-3.9637-0.020832-8.5362-0.80431-10.963-4.1065-2.7323-3.5408-2.8528-8.1451-2.5069-12.325-0.73335-5.6652 1.6636-11.186 0.89275-16.835z"/><path transform="matrix(1 0 0 .9556 223 498.59)" d="m0 0c0.53222-6.1835-8.7206-9.3057-12.388-4.5571-2.4347 2.9706-1.8676 7.6662 1.2118 9.96 3.0632 2.8331 8.2431 1.6621 10.225-1.8581 0.64101-1.0606 0.99633-2.3023 0.95154-3.5449z"/><path transform="matrix(1 0 0 .9556 247.91 493.26)" d="m0 0c-3.2442-0.94643-1.8458-4.9378-1.8087-7.4035-0.81342-2.4571 0.19087-6.0992 3.4037-4.6227 2.4893 0.75933 4.617 2.9283 4.5861 5.6376 0.24709 3.3496-2.8523 6.476-6.1811 6.3885z"/><path transform="matrix(1 0 0 .9556 200.14 486.1)" d="m0 0c0.48247-5.1884-7.1715-7.4917-10.268-3.7528-2.2265 2.7488-1.3605 7.4375 2.0772 8.7602 3.0531 1.6477 7.4587 0.016446 8.0243-3.5945 0.16261-0.45506 0.1276-0.93871 0.16615-1.4129z"/><path transform="matrix(1 0 0 .9556 198.5 476.16)" d="m0 0c1.235-3.8111-3.6159-8.0308-7.0521-5.6523-2.2294 2.5192-3.1873 6.829-0.94605 9.6996 1.5499 2.9687 6.4706 3.3996 7.3238-0.36256 0.42751-1.1802 0.65473-2.4303 0.67427-3.6848z"/><path transform="matrix(1 0 0 .9556 248.72 482.59)" d="m0 0c-2.1713-3.4243 0.083637-7.5884-1.09-11.256 0.16152-3.9403 5.4163-0.75768 5.2506 1.8978 0.91789 3.4102 0.082574 8.7854-4.1606 9.3585z"/><path transform="matrix(1 0 0 .9556 211.98 493.52)" d="m0 0c-0.51555-4.8837-5.9113-7.4318-10.364-6.9911-3.9105 0.12772-8.4181 2.9693-8.2357 7.2832 0.27001 4.6232 5.3822 6.8096 9.4623 6.6851 4.1483 0.07743 8.8013-2.4331 9.1378-6.9773z"/></g></g></g></svg>
