<svg width="210mm" height="16mm" version="1.1" viewBox="0 0 793.7 60.472" xmlns="http://www.w3.org/2000/svg" xmlns:xlink="http://www.w3.org/1999/xlink"><defs><clipPath id="d"><rect transform="scale(1,-1)" x="9.2886" y="-1323.4" width="576.21" height="632.15" fill-opacity=".42448" stroke-width="3.1362" style="paint-order:stroke fill markers"/></clipPath><filter id="c" x="-.011333" y="-.58921" width="1.0227" height="2.1785" color-interpolation-filters="sRGB"><feGaussianBlur stdDeviation="1.4107046"/></filter><linearGradient id="a" x1="16.532" x2="570.09" y1="1289.2" y2="1289.2" gradientTransform="translate(0 12.1)" gradientUnits="userSpaceOnUse"><stop stop-color="#00aad8" offset="0"/><stop stop-color="#1f97d4" stop-opacity=".88621" offset=".91011"/><stop stop-color="#00aad8" stop-opacity="0" offset="1"/></linearGradient><filter id="b" x="-.049816" y="-.25765" width="1.1062" height="1.5491" color-interpolation-filters="sRGB"><feFlood flood-color="rgb(255,255,255)" result="flood"/><feComposite in="flood" in2="SourceGraphic" operator="in" result="composite1"/><feGaussianBlur in="composite1" result="blur" stdDeviation="3"/><feOffset dx="1" dy="1" result="offset"/><feComposite in="SourceGraphic" in2="offset" result="composite2"/></filter></defs><g transform="matrix(1.3774 0 0 -1.3774 -12.795 1822.9)"><path transform="matrix(1 0 0 -1 0 2014.6)" d="m4.7894 692.25s89.386 17.52 142.15 13.038c54.882-4.6612 117.11-23.705 249.92-2.4193 24.215 3.881 58.59 9.5594 121.74 3.0202 11.18-1.1576 32.644-6.6995 74.12 8.047 15.833 5.6292 23.63 29.281 23.63 29.281s-27.804-11.458-53.768-13.635c-65.896-5.5236-115.52 23.992-189.42 13.678-55.158-7.6982-85.859 6.2918-145.62 12.931-35.492 3.9426-85.485-4.6015-126 4.6642-111.17 25.421-138.06-0.87737-138.06-0.87737" clip-path="url(#d)" display="none" fill="#90cbd6" stroke-width="3.1362" style="paint-order:stroke fill markers"/><path d="m23.112 1294.7s63.2 7.1277 101.44 8.3706c24.672 0.802 73.728 0.4281 128.53-3.7716 45.681-3.5004 116.58 4.2339 164.71 3.3785 71.093-3.1068 146.17-9.6693 146.17-9.6693" fill="none" filter="url(#c)" opacity=".4" stroke="url(#a)" stroke-linecap="round" stroke-linejoin="round" stroke-width="5.4877" style="paint-order:stroke fill markers"/><text transform="scale(1,-1)" x="39.71867" y="-1294.2355" fill="#1f5266" filter="url(#b)" font-family="'Akaya Kanadaka'" font-size="33.879px" stroke="#ffffff" stroke-linecap="round" stroke-linejoin="round" stroke-width=".82316" style="paint-order:stroke fill markers" xml:space="preserve"><tspan x="39.71867" y="-1294.2355" fill="#1f5266" font-family="'Akaya Kanadaka'" font-size="33.879px" stroke="#ffffff" stroke-width=".82316">Work</tspan></text></g></svg>
