<svg width="210mm" height="95mm" version="1.1" viewBox="0 0 793.7 359.06" xmlns="http://www.w3.org/2000/svg"><defs><filter id="q" x="-.016862" y="-.21154" width="1.0337" height="1.4231" color-interpolation-filters="sRGB"><feGaussianBlur stdDeviation="0.60550134"/></filter><filter id="p" x="-.01638" y="-.14072" width="1.0328" height="1.2814" color-interpolation-filters="sRGB"><feGaussianBlur stdDeviation="0.43559056"/></filter><filter id="o" x="-.014784" y="-.47668" width="1.0296" height="1.9534" color-interpolation-filters="sRGB"><feGaussianBlur stdDeviation="0.81761849"/></filter><filter id="l" x="-.029989" y="-.20054" width="1.06" height="1.4011" color-interpolation-filters="sRGB"><feGaussianBlur stdDeviation="0.60550134"/></filter><filter id="k" x="-.014348" y="-.19861" width="1.0287" height="1.3972" color-interpolation-filters="sRGB"><feGaussianBlur stdDeviation="0.60550134"/></filter><filter id="j" x="-.044193" y="-.18114" width="1.0884" height="1.3623" color-interpolation-filters="sRGB"><feGaussianBlur stdDeviation="0.60550134"/></filter><filter id="i" x="-.028357" y="-.2124" width="1.0567" height="1.4248" color-interpolation-filters="sRGB"><feGaussianBlur stdDeviation="0.60550134"/></filter><filter id="h" x="-.045056" y="-.17608" width="1.0901" height="1.3522" color-interpolation-filters="sRGB"><feGaussianBlur stdDeviation="0.60550134"/></filter><filter id="g" x="-.014264" y="-.21967" width="1.0285" height="1.4393" color-interpolation-filters="sRGB"><feGaussianBlur stdDeviation="0.60550134"/></filter><filter id="f" x="-.025046" y="-.22093" width="1.0501" height="1.4419" color-interpolation-filters="sRGB"><feGaussianBlur stdDeviation="0.60550134"/></filter><filter id="e" x="-.022769" y="-.19562" width="1.0455" height="1.3912" color-interpolation-filters="sRGB"><feGaussianBlur stdDeviation="0.60550134"/></filter><filter id="d" x="-.03125" y="-.19417" width="1.0625" height="1.3883" color-interpolation-filters="sRGB"><feGaussianBlur stdDeviation="0.60550134"/></filter><filter id="c" x="-.038698" y="-.19192" width="1.0774" height="1.3838" color-interpolation-filters="sRGB"><feGaussianBlur stdDeviation="0.60550134"/></filter><filter id="b" x="-.0075905" y="-.23028" width="1.0152" height="1.4606" color-interpolation-filters="sRGB"><feGaussianBlur stdDeviation="0.60550134"/></filter><filter id="a" x="-.023548" y="-.20965" width="1.0471" height="1.4193" color-interpolation-filters="sRGB"><feGaussianBlur stdDeviation="0.60550134"/></filter><filter id="m" x="-.017923" y="-.054702" width="1.0358" height="1.1094" color-interpolation-filters="sRGB"><feGaussianBlur stdDeviation="4.7900746"/></filter><filter id="r" x="-.03414" y="-.091088" width="1.0683" height="1.1822" color-interpolation-filters="sRGB"><feGaussianBlur stdDeviation="9.613582"/></filter><filter id="n" x="-.023026" y="-.072818" width="1.0461" height="1.1456" color-interpolation-filters="sRGB"><feGaussianBlur stdDeviation="4.4513447"/></filter><clipPath id="u"><rect transform="scale(1,-1)" x="9.2886" y="-1323.4" width="576.21" height="814.93" fill-opacity=".42448" stroke-width="3.4728" style="paint-order:stroke fill markers"/></clipPath><clipPath id="t"><rect transform="scale(1,-1)" x="9.2886" y="-1323.4" width="576.21" height="814.93" fill-opacity=".42448" stroke-width="3.4728" style="paint-order:stroke fill markers"/></clipPath><clipPath id="s"><rect transform="scale(1,-1)" x="9.2886" y="-739.32" width="576.21" height="230.88" fill="#7d9ca7" opacity=".5" stroke-width=".72598"/></clipPath></defs><g transform="matrix(1.3774 0 0 -1.3774 -12.795 1822.9)"><path transform="translate(1.3258e-7 554.36)" d="m0.37304 735.89s27.637 17.006 47.125 25.155c16.685 6.9764 48.399 16.876 171.94-7.9603 74.221-21.277 164.44-9.4079 244.22-0.31842 29.931 3.1841 94.68 10.982 125.45-12.1 6.3683-4.7762 4.1394-5.0946 4.1394-5.0946" clip-path="url(#t)" fill="#90cbd6" stroke-width="3.1362" style="paint-order:stroke fill markers"/><path d="m-5.4903 691.22s36.323 52.805 88.039 41.408c43.625-9.6145 108.81-46.619 232.36-21.782 38.197 12.27 97.793 20.665 180.28 7.5233 29.931-3.1841 56.074 0.40002 96.635 17.503 9.0784 3.828-1.1098 8.2202-1.1098 8.2202l-587.15-0.31842" clip-path="url(#u)" display="none" fill="#90cbd6" stroke-width="3.1362" style="paint-order:stroke fill markers"/><g transform="translate(1.3258e-7 554.36)" clip-path="url(#s)"><g><path d="m-1.4931 536.1h599.94v360.07h-599.94z" clip-path="none" fill="#90cbd6"/><path transform="translate(0 1.9153e-5)" d="m5.9211 786.58s72.368 30.921 106.58 36.184c34.211 5.2632 68.421 9.2105 67.763 15.132-0.6579 5.921-75 14.474-77.632 18.421-2.6316 3.9474 111.84 1.9737 130.92 5.2632 19.079 3.2895 25.658 11.842 25.658 11.842s-3.9474 8.5526 3.2895 9.8684c7.2368 1.3158 78.947 2.6316 105.26-4.6053 26.316-7.2368 44.737-9.8684 46.053-25.658 1.3158-15.789-107.89-32.237-113.82-38.816-5.921-6.579-7.2368-8.5526 8.5526-16.447 15.789-7.8947 45.395-20.395 71.711-21.711s54.605 7.2368 80.263 3.9474c25.658-3.2895 79.605-24.342 122.37-30.921 42.763-6.579 33.553 1.3158 32.895 21.711s-2.6316 182.24-2.6316 182.24l-637.5 3.9474 5.2632-177.63" fill="#c5f5ee" filter="url(#m)" opacity=".5" stroke-width=".75"/><path transform="matrix(1 0 0 .86548 0 60.847)" d="m-13 731.75s82.787 19.742 222.25 10.189c139.46-9.5524 240.37-12.911 266.83-48.399 8.6714-11.632 37.83-20.15 60.258-20.15 20.494 0 35.752 0 93.703-30.03 27.67-14.338 23.714-116.03 19.893-138.96-3.821-22.926-224.16-8.9156-224.16-8.9156l-448.96 177.67" fill="#7d9ca7" filter="url(#r)" opacity=".4" stroke-width=".72598" style="mix-blend-mode:normal"/><path transform="matrix(1.0068 0 0 1 .21327 0)" d="m-20.877 719.69s111.59 4.4578 199.98-3e-5c88.388-4.4578 238.71-17.647 254.22-33.151 15.503-15.503 10.275-42.774 0-49.089-10.275-6.3151-61.532-19.603-46.185-46.185 15.347-26.582-48.287-12.664-48.287-12.664l-351.85 115.57" fill="#72a6af" filter="url(#n)" opacity=".5" stroke-width=".72598" style="mix-blend-mode:normal"/></g><g fill="#c9e8f1"><path transform="matrix(.77582 0 0 .91812 392.95 609.12)" d="m0 0c10.299 6.1924 53.448 5.486 47.982-2.1537-15.963-2.0989-32.169-0.31105-47.982 2.1537z" filter="url(#l)" opacity=".45" style="mix-blend-mode:normal"/><path transform="matrix(.77582 0 0 .91812 512.26 780.76)" d="m0 0c33.659 2.3403 67.92 1.799 101.28-3.1368-31.75-6.4304-68.259-0.43405-101.28 3.1368z" filter="url(#k)" opacity=".45" style="mix-blend-mode:normal"/><path transform="matrix(.77582 0 0 .91812 -71.661 394.35)" d="m400.76 387.72c11.656 13.461 54.988-5.7269 18.65-2.8913-6.2873 0.39285-12.54 1.3575-18.65 2.8913z" filter="url(#j)" opacity=".45" style="mix-blend-mode:normal"/><path transform="matrix(.77582 0 0 .91812 -71.661 394.35)" d="m673.07 266.32c12.857 5.1279 53.981 5.5421 51.103-1.9447-16.977-2.3721-34.256-0.62589-51.103 1.9447z" filter="url(#i)" opacity=".45" style="mix-blend-mode:normal"/><path transform="matrix(.77582 0 0 .91812 5.3175 834.24)" d="m0 0c11.7 13.205 53.881-6.8184 18.23-3.2601-6.1601 0.5179-12.273 1.6064-18.23 3.2601z" filter="url(#h)" opacity=".45" style="mix-blend-mode:normal"/><path transform="matrix(.77582 0 0 .91812 66.678 826.16)" d="m0 0c33.726 3.6597 68.161 4.4654 101.88 0.84376-31.648-7.6742-68.556-3.1164-101.88-0.84376z" filter="url(#g)" opacity=".45" style="mix-blend-mode:normal"/><path transform="matrix(.77582 0 0 .91812 168.95 796.63)" d="m0 0c15.295 4.4913 58.93 5.3648 58.008-1.8026-19.265-2.58-38.858-0.9623-58.008 1.8026z" filter="url(#f)" opacity=".45" style="mix-blend-mode:normal"/><path transform="matrix(.77582 0 0 .91812 227.76 785.74)" d="m0 0c18.47 1.0039 55.357 9.7603 63.823-2.2033-21.244-2.8481-42.667 0.005075-63.823 2.2033z" filter="url(#e)" opacity=".45" style="mix-blend-mode:normal"/><path transform="matrix(-1.4991 0 0 .91812 339.54 409.2)" d="m146.11 389.34c18.47 1.0039 55.357 9.7603 63.823-2.2033-21.244-2.8481-42.667 5e-3 -63.823 2.2033z" filter="url(#p)" opacity=".45" style="mix-blend-mode:normal"/><path transform="matrix(.77582 0 0 .91812 -71.661 394.35)" d="m690.28 411.08c14.038 5.1 35.616 5.8632 46.502-2.3891-15.317-2.8631-31.319-0.33818-46.502 2.3891z" filter="url(#d)" opacity=".45" style="mix-blend-mode:normal"/><path transform="matrix(.77582 0 0 .91812 -71.661 394.35)" d="m598.65 427.56c9.8672 11.649 61.189-2.6852 24.517-3.0172-8.2445 0.19113-16.459 1.2877-24.517 3.0172z" filter="url(#c)" opacity=".45" style="mix-blend-mode:normal"/><path transform="matrix(.77582 0 0 .91812 -71.661 394.35)" d="m555.17 353.36c77.25 4.1561 114.2 3.4372 191.45-0.75261-77.249-4.1901-114.2-3.4046-191.45 0.75261z" filter="url(#b)" opacity=".45" style="mix-blend-mode:normal"/><path transform="matrix(.77582 0 0 .91812 -71.661 394.35)" d="m728.12 337.24c10.085 6.131 66.8 6.6007 61.343-1.0108-15.665-2.1197-45.829-1.4542-61.343 1.0108z" filter="url(#a)" opacity=".45" style="mix-blend-mode:normal"/><path transform="matrix(.77582 0 0 .91812 301.73 753.95)" d="m0 0c28.497 2.9409 57.846 5.506 86.181 0.63503-24.311-7.6861-58.706-2.7088-86.181-0.63503z" filter="url(#q)" opacity=".45" style="mix-blend-mode:normal"/><path transform="matrix(.40468 0 0 .96535 150.91 342.7)" d="m321.5 500.96c44.188 2.733 88.546 2.7558 132.73 0-44.187-2.7563-88.545-2.7324-132.73 0z" filter="url(#o)" opacity=".45"/></g><g><path transform="matrix(.70849 0 0 .76923 -35.99 712.72)" d="m0 0c204.02 4.1875 410.9 12.716 611.96-28.414 39.568-0.39598 63.174-54.532 15.783-62.248-40.631-1.8243-78.826-56.558-22.618-69.532 98.412-36.844 205.18-39.185 308.69-48.693 52.909-4.8204-22.812-1.6558 29.166-12.812 42.317-26.708 0.0933-68.154-21.085-71.132-87.116-21.47-84.549-18.473-173.76-26.557-238.52 3.8782-476.97 11.401-715.46 16.593z" fill="#e3b172"/><path transform="matrix(.70849 0 0 .67269 -44.144 651.68)" d="m1.6871 26.173c178.17 33.012 226.91 45.703 406.77 45.694 155.92-9.9507 83.689-55.512 142.21-32.63 38.865 31.174 122.72-26.506 52.529-35.937-61.646-30.063-143.93-55.044-190.95-91.462 64.198-7.4188 151.06 26.116 201.2-37.881 113.82-22.713 230.49-32.485 342.54-63.05 87.389-60.55-65.939-101.13-116.9-92.728-164.23-7.4509-328.47-20.102-492.94-22.803-99.331 2.4918-202.32 4.0611-296.55 39.359-72.025 33.166-74.416 126.55-83.079 196.24-0.45909 25.463 3.5461 51.258 13.779 74.553" fill="#704e38" opacity=".16"/><path transform="matrix(.63978 0 0 .94507 369.98 594.9)" d="m6.4212 7.4119c-3.336 8.2753-4.4114 13.149 4.6608 22.978 6.1249 4.7114 19.641 15.141 30.641 17.411 4.2031 0.86737 24.245 2.6879 34.232 6.7149 16.149 6.5119 21.093 18.135 3.0461 35.903-3.2147 1.8034-11.975 9.3263-7.6986 1.4438 2.2151-9.7777 4.2114-17.408-3.1177-22.691-10.305-8.2133-23.449-11.364-31.145-14.724-7.7597-3.3884-18.167-11.141-22.756-15.99-6.0532-5.5567-12.547-9.8037-14.135-17.86 0.088864-4.715 3.8079-12.283 6.2725-13.186z" fill="#be7c4e" fill-opacity=".64045"/><path transform="matrix(.70849 0 0 .76933 266.19 626.35)" d="m0 0c-27.108-3.5039-41.261-27.199-61.097-25.794-18.184 1.288-41.078 5.792-56.048-9.138-6.859-6.84-6.152-14.465-13.814-20.367-9.949-7.66-26.313-12.242-37.686-17.989-27.008-13.65-55.73-23.476-85.166-30.623-32.983-8.009-69.211-20.023-103.52-17.724-23.14 1.549-43.046 12.848-63.925 21.489-30.792 12.746-35.492 30.182-12.566 58.375 39.555 48.643 48.957 63.132 105.8 81.106 53.242 16.838 120.64 4.5544 198.63 22.956 38.427 13.15 105.87 9.4266 132.45 3.0306 26.845-6.458 101.39-32.931 67.995-50.848" fill="#ca975d"/></g><path transform="matrix(.90987 0 0 .70849 183.11 547.33)" d="m0 0c-5.0863 12.616-49.696 5.7473-32.324 22.769 8.5046 8.3334 38.052-22.381 35.924-16.731-3.0573 8.1147-24.145 18.013-20.872 29.432-2.4324 15.07 20.056-18.773 21.235-19.802 3.0996 17.146-5.6708 39.861 5.7601 54.294 5.4345 3.4458 15.027-3.7615 15.77-6.5051-1.9495-14.349-4.111-28.685-7.2395-42.831 4.546 13.524 12.18 27.009 24.757 34.467 10.895 2.605 3.6348-11.807 1.2818-16.75-3.8863-7.2976-14.997-7.3385-18.794-21.071 9.0998 8.7039 16.393 14.958 27.244 21.467 13.593 4.332 16.797 5.1799 19.576 5.5008-1.969-31.15-30.151-14.855-40.908-32.254-5.3398-8.0948 5.8656 0.44137 9.1497 1.2697 5.5169 4.5129 20.079 3.0417 12.304-5.9374-6.221-5.4027-16.309-1.5922-23.076-6.2634-5.328-3.4996 7.3135-5.1966 9.7539-4.4388 9.5671 1.673 20.167 4.7503 29.389 0.19553 8.1206-7.0178-6.0791-10.026-11.253-11.46-3.6015-1.0987-13.838-6.2764-4.8875-3.8858 8.6757 0.82693 17.729-1.6809 24.818-6.6744 5.7333-6.5768-3.5268-12.127-9.6906-11.139-25.963-3.5011-55.08 8.5228-66.906 32.765-0.66581 1.0836-0.9273 2.3379-1.0124 3.5836z" fill="#818427"/><g transform="matrix(.58809 0 0 .47741 82.858 584.94)" clip-path="none"><path transform="matrix(1.2047 0 0 1.1939 -160.34 -38.98)" d="m0 0c30.583 22.061 64.51 39.011 96.083 59.36 14.691 0.69211 27.191-12.928 41.021-17.918 37.804-19.924 75.609-39.848 113.41-59.772 8.6082-11.671 10.866-30.356 24.059-36.964 38.825-15.853 77.65-31.707 116.48-47.56v-33.607c-130.35 2.716-260.7 5.432-391.05 8.148v128.31z" fill="#332e1a"/><path transform="matrix(1.1236 0 0 1.3216 175.51 -96.765)" d="m0 0c-21.386-1.6973-42.771-3.3947-64.157-5.092-41.984 35.595-83.969 71.191-125.95 106.79-9.8493-2.0647-8.2165-8.3128-4.8589-15.184 1.1756-4.6383 3.1458-8.7667 7.1557-11.586 30.356-29.387 60.712-58.775 91.068-88.162 45.487-15.276 90.974-30.551 136.46-45.827l78.405 10.833c-39.374 16.077-78.747 32.155-118.12 48.232z" fill="#7d4935"/><path d="m0 0 64.157-52.955 77.822-8.953-0.426 0.806-147.67 77.827z" fill="#905740"/></g><g transform="matrix(1.6467 0 0 1.5217 357.28 567.2)" clip-path="none"><path transform="matrix(.43024 0 0 .46559 -49.527 -39.286)" d="M 0,0 28.514,42.771 149.7,0 Z" fill="#2c271c"/><path transform="matrix(.43024 0 0 .46559 -37.259 -19.372)" d="m0 0c-0.12623-1.3599 1.0424-2.8586 1.4043-4.2707 2.2476-5.7051 4.4951-11.41 6.7427-17.115 15.637-7.1283 31.274-14.257 46.911-21.385h66.128c-40.395 14.257-80.791 28.514-121.19 42.771z" fill="#864f39"/><path transform="matrix(.43024 0 0 .98218 -12.273 -42.658)" d="m0 0-29.804 18.637 58.318 24.134 268.65-23.365-3.6527-18.237z" fill="#2c271c"/><path d="m0 0c-0.12623-1.3599 1.0424-2.8586 1.4043-4.2707l1.1385-19.931 21.763 6.1023-2.8493-12.61 33.601-12.061h66.128z" fill="#714b3c"/></g><g transform="matrix(.70849 0 0 .70849 -14.64 449.66)"><path transform="matrix(.50136 0 0 .72459 351.18 113.2)" d="m0 0c2.45-4.031 2.178-8.115-8.285-8.932h-448.89c-17.268 0-17.506 5.0109-12.222 10.294l11.864 1.857c145.37-0.69502 252.57-0.79706 422.76-1.5068z" fill="#372315"/><path transform="matrix(.50136 0 0 .72459 350.3 115.89)" d="m0 0c2.45-4.031 2.178-8.115-8.285-8.932h-448.89c-17.268 0-13.569 3.649-8.285 8.932l25.314 25.01c7.622 8.248 11.876 8.931 16.451 8.931h381.93c4.576 0 11.007 0.68 17.812-6.125z" fill="#7e5031"/></g><g transform="matrix(.70849 0 0 .70849 -8.5801 333.6)"><path transform="translate(194.58 469.86)" d="m0 0c-2.833-0.625-5.2619-2.8813-4.933-5.535l0.35408-2.8569c0.2888-2.3302 1.62-4.363 3.933-5.242z" fill="#deaa87"/><path transform="translate(250.02 458.62)" d="m-0.1589-0.63559c1.296 0.91 2.2279 1.8444 2.2018 4.0886l0.038152 4.5337c-0.2 1.81-2.095 3.4863-3.721 4.0153z" fill="#deaa87"/><path transform="translate(224.62 420.64)" d="m 0,0 h -4.483 c -8.564,0 -16.186,4.004 -21.114,10.234 l -0.19,-0.027 0.26,-19.83 25.054,-20.318 22.779,19.828 0.235,22.328 C 17.736,4.863 9.438,0 0,0" fill="#e9c6af"/><path transform="translate(247.07 424.4)" d="m0 0 0.089 8.461c-4.805-7.352-13.103-12.215-22.541-12.215h-4.484c-8.563 0-16.185 4.004-21.113 10.234l-0.19-0.027 0.183-13.976c5.565-2.889 13.038-4.34 21.105-3.668l2.671 0.222c10.609 0.883 19.602 5.217 24.28 10.969" fill="#dba37e"/><path transform="translate(251.53 447.55)" d="m0 0c0-14.863-12.049-26.91-26.911-26.91h-4.484c-14.862 0-26.911 12.047-26.911 26.91l1.525 25.117c0 14.863 9.507 22.555 24.368 22.555h4.484c14.863 0 21.233-7.621 24.499-22.555z" fill="#e9c6af"/><path transform="translate(249.93 438.53)" d="m0 0c0.022253-6.4134-4.7906-11.665-10.176-14.533-5.7304-3.1575-12.377-4.1479-18.848-3.9405-8.1141 0.02581-16.689 2.4976-22.404 8.5168-3.7256 3.7922-5.2239 9.6567-3.5086 14.71 1.9596 5.0951 7.4313 7.4624 12.398 8.6465 7.0778 1.636 14.417 1.5198 21.628 1.166 6.0838-0.5387 12.602-1.5746 17.388-5.6887 2.5441-2.217 3.7213-5.5499 3.5235-8.8779z" fill="#6d3816"/><path transform="translate(235.23 463.92)" d="m0 0c0-0.676-0.549-1.225-1.226-1.225-0.675 0-1.223 0.549-1.223 1.225s0.548 1.225 1.223 1.225c0.677 0 1.226-0.549 1.226-1.225" fill="#214478"/><path transform="translate(211.02 463.92)" d="m0 0c0-0.676-0.549-1.225-1.226-1.225-0.676 0-1.224 0.549-1.224 1.225s0.548 1.225 1.224 1.225c0.677 0 1.226-0.549 1.226-1.225" fill="#214478"/><path transform="matrix(1 0 0 .71809 240.96 469.67)" d="m0 0c0-0.564-0.457-1.021-1.021-1.021h-13.065c-0.564 0-1.02 0.457-1.02 1.021s0.456 1.021 1.02 1.021h13.065c0.564 0 1.021-0.457 1.021-1.021" fill="#502d16"/><path transform="matrix(1 0 0 .66461 217.69 469.63)" d="m0 0c0-0.678-0.548-1.227-1.225-1.227h-11.432c-0.677 0-1.225 0.549-1.225 1.227 0 0.676 0.548 1.225 1.225 1.225h11.432c0.677 0 1.225-0.549 1.225-1.225" fill="#502d16"/><path transform="rotate(3.7745 -6598.4 3397.7)" d="m0 0c1.338-3.107 7.163-5.447 14.146-5.447 6.984 0 12.808 2.34 14.146 5.447z" fill="#fff"/><path transform="matrix(1 0 0 .94874 224.96 454.67)" d="m0 0c0-1.576-1.43-2.854-3.192-2.854-1.765 0-3.195 1.278-3.195 2.854v7.904c0 1.575 1.43 2.854 3.195 2.854 1.762 0 3.192-1.279 3.192-2.854z" fill="#d38d5f"/><g transform="translate(243.2 464.6)" clip-path="none" fill="#35435a"><path transform="translate(-301.03 -274.23)" d="m258.71 269.67h16.74v6.941h-16.74zm17.558-0.817h-18.374v8.574h18.374z" clip-path="none"/><path transform="translate(-301.03 -274.23)" d="m283.61 269.67h16.74v6.941h-16.74zm17.558-0.817h-18.374v8.574h18.374z" clip-path="none"/><path transform="translate(-17.949 -.64048)" d="m0 0h-7.214c-0.225 0-0.408 0.184-0.408 0.408 0 0.227 0.183 0.41 0.408 0.41h7.214c0.226 0 0.408-0.183 0.408-0.41 0-0.224-0.182-0.408-0.408-0.408"/><path transform="translate(-43.144 -.1367)" d="m0 0c-0.098 0-0.196 0.035-0.274 0.105l-5.716 5.172c-0.167 0.153-0.18 0.41-0.03 0.577 0.153 0.167 0.413 0.179 0.579 0.029l5.715-5.17c0.167-0.152 0.18-0.412 0.03-0.578-0.081-0.088-0.193-0.135-0.304-0.135"/><path d="m0 0c-0.102 0-0.202 0.037-0.281 0.111-0.164 0.157-0.17 0.416-0.015 0.578l5.309 5.581c0.156 0.164 0.414 0.169 0.577 0.015 0.164-0.156 0.17-0.416 0.014-0.578l-5.308-5.58c-0.08-0.084-0.189-0.127-0.296-0.127"/></g><g transform="matrix(1.0053 0 0 1.0023 -.89151 -1.1908)" fill="#392a20"><path transform="translate(241.7 495.36)" d="m0 0c2.9082 1.2676 6.4724-0.37775 7.2181-3.4976 1.3836-3.5839-0.1963-7.2992 0.21028-10.968-0.018038-3.2258 0.58239-6.5304-0.10068-9.7099-1.4486-1.3424 0.85404-6.2718-1.1313-6.015-1.931 3.0705-1.781 6.9367-2.4371 10.413-0.67616 6.6937-2.3748 13.21-3.7593 19.778z"/><path transform="matrix(1 0 0 .9556 193.93 462.49)" d="m0 0c3.9649 1.0136 4.9174 5.3591 4.9028 8.7214 0.29949 3.1771-1.0347 6.5449 0.7834 9.4985 1.3888 2.9221 5.1713 4.4213 8.3426 3.2323 5.8077-1.5507 10.651-5.8224 16.91-5.9282 10.468-1.4711 22.311 4.1584 25.535 14.02 2.2248 5.8913-0.0846 12.784-5.2361 16.629-5.2791 4.3278-13.481 4.1762-19.054 0.43442-4.0529-2.5509-7.0375-6.8921-7.0178-11.582-3.316-3.22-8.404-1.8557-12.588-1.7596-3.9637-0.020832-8.5362-0.80431-10.963-4.1065-2.7323-3.5408-2.8528-8.1451-2.5069-12.325-0.73335-5.6652 1.6636-11.186 0.89275-16.835z"/><path transform="matrix(1 0 0 .9556 223 498.59)" d="m0 0c0.53222-6.1835-8.7206-9.3057-12.388-4.5571-2.4347 2.9706-1.8676 7.6662 1.2118 9.96 3.0632 2.8331 8.2431 1.6621 10.225-1.8581 0.64101-1.0606 0.99633-2.3023 0.95154-3.5449z"/><path transform="matrix(1 0 0 .9556 247.91 493.26)" d="m0 0c-3.2442-0.94643-1.8458-4.9378-1.8087-7.4035-0.81342-2.4571 0.19087-6.0992 3.4037-4.6227 2.4893 0.75933 4.617 2.9283 4.5861 5.6376 0.24709 3.3496-2.8523 6.476-6.1811 6.3885z"/><path transform="matrix(1 0 0 .9556 200.14 486.1)" d="m0 0c0.48247-5.1884-7.1715-7.4917-10.268-3.7528-2.2265 2.7488-1.3605 7.4375 2.0772 8.7602 3.0531 1.6477 7.4587 0.016446 8.0243-3.5945 0.16261-0.45506 0.1276-0.93871 0.16615-1.4129z"/><path transform="matrix(1 0 0 .9556 198.5 476.16)" d="m0 0c1.235-3.8111-3.6159-8.0308-7.0521-5.6523-2.2294 2.5192-3.1873 6.829-0.94605 9.6996 1.5499 2.9687 6.4706 3.3996 7.3238-0.36256 0.42751-1.1802 0.65473-2.4303 0.67427-3.6848z"/><path transform="matrix(1 0 0 .9556 248.72 482.59)" d="m0 0c-2.1713-3.4243 0.083637-7.5884-1.09-11.256 0.16152-3.9403 5.4163-0.75768 5.2506 1.8978 0.91789 3.4102 0.082574 8.7854-4.1606 9.3585z"/><path transform="matrix(1 0 0 .9556 211.98 493.52)" d="m0 0c-0.51555-4.8837-5.9113-7.4318-10.364-6.9911-3.9105 0.12772-8.4181 2.9693-8.2357 7.2832 0.27001 4.6232 5.3822 6.8096 9.4623 6.6851 4.1483 0.07743 8.8013-2.4331 9.1378-6.9773z"/></g></g><g transform="matrix(.70849 0 0 .70849 -14.64 449.66)"><path transform="matrix(1 0 0 .93591 280.47 240.19)" d="m0 0-24.992 7.006-22.779-19.828-25.042 19.324-0.012 0.994-27.615-7.496c-4.511 0-8.167-3.758-8.167-8.396v-106.37c0-4.636 3.656-8.396 8.167-8.396h100.44c4.511 0 8.167 3.76 8.167 8.396v106.37c0 4.638-3.656 8.396-8.167 8.396" fill="#cdde87"/><path transform="translate(171.86 127.04)" d="m0 0v106.36c0 1.237 0.267 2.408 0.733 3.465-2.384-1.351-4.328-3.969-5.06-7.256l-24.253-72.769c-6.941-23.682 6.131-25.25 10.506-26.227l18.096-4.031c-7e-3 0.148-0.022 0.299-0.022 0.453" fill="#165044"/><path transform="translate(208.85 246.22)" d="m0 0-1.197-0.014 26.403-68.865 21.418 69.369-22.86-18.266z" fill="#fff"/><path transform="translate(207.64 247.2)" d="m0 0-8.363-2.271-3.738-11.584 8.166-0.204-8.166-4.9 38.516-50.9-26.403 68.865z" fill="#008066"/><path transform="translate(207.64 247.2)" d="m0 0 8.396-37.324 16.412 18.24" fill="#666" fill-opacity=".4"/><path transform="translate(262.71 236.41)" d="m0 0 7.759 1.633-4.482 5.724-10.508 2.946-21.418-69.369 37.224 54.574z" fill="#008066"/><path transform="translate(255.47 246.71)" d="m0 0-4.731-38.059-18.129 19.547" fill="#666" fill-opacity=".4"/><path transform="translate(217.39 215.18)" d="m0 0 15.229 13.27-24.973 18.756z" fill="#fff"/><path transform="translate(249.44 214.57)" d="m0 0-16.822 13.88 22.86 18.266z" fill="#fff"/><path transform="matrix(-1 0 0 1 288.47 127.31)" d="m0 0v106.36c0 1.237 0.267 2.408 0.733 3.465-2.384-1.351-4.328-3.969-5.06-7.256l-24.253-72.769c-6.941-23.682 6.131-25.25 10.506-26.227l18.096-4.031c-7e-3 0.148-0.022 0.299-0.022 0.453" fill="#165044"/><path transform="scale(1,-1)" d="m181.66-240.71 25.595-6.4001 9.9932 31.986c1.3834 4.4279 0.33106-5.5425 1.8608-1.163l15.038 38.559 37.065 52.621c-29.307-0.32472-61.871-0.23259-91.18-0.23259-4.639 0-8.5166-2.5725-9.7692-9.7692 1.3914 5.1019 0.79763 9.505-5.6306 6.5359-9.6903-2.7692-28.673 2.4158-21.969-26.076l25.739-76.757c1.4749-4.3983 8.6313-9.6385 13.258-9.304z" fill="#6bc148" fill-opacity=".28477" stroke-width=".99975" style="mix-blend-mode:multiply"/></g><g transform="translate(.61075 19.3)"><path d="m322.64 651.65c-13.681-2.7649-13.781-5.2736-12.165-6.984 3.4439-3.1618 15.662-5.0878 34.242-5.3011 8.3427-0.0256 20.735 0.42441 32.185 2.6057 12.502 2.5856 12.882 4.9549 11.836 6.6152-3.8031 3.4658-16.903 5.7432-39.267 5.4891-7.3449-0.13012-17.604-0.70651-26.831-2.4249z" fill="#a97840"/><path d="m324.55 650.83c-13.681-2.7649 1.545-5.6444-3.5547-7.2724-2.0355-1.8435 6.9279-1.9155 25.508-2.1288 8.3427-0.0256 16.954-0.39595 17.642 0.50456 0.38016 0.49736 6.509 1.0766 10.263 1.457 3.9454 0.39984 2.1652 5.6096 1.6967 6.3529-3.8031 3.4658-9.4873 0.1402-31.852-0.11392-7.3449-0.13011-10.477 2.919-19.703 1.2006z" fill="#714f2b"/><path transform="matrix(.13657 0 0 .12325 338.92 664.81)" d="m0 0c-9.972 4.318-25.115-8.483-33.824-28.592-8.708-20.111-7.686-39.913 2.285-44.231l226.86-98.249 31.54 72.824z" fill="#2e1d0b"/><path transform="matrix(.13657 0 0 .12325 369.9 652.7)" d="m0 0c-9.973 4.317-25.115-8.483-33.824-28.594-8.71-20.109-7.687-39.912 2.284-44.23 9.972-4.319 25.115 8.482 33.824 28.593 8.708 20.109 7.686 39.913-2.284 44.231" fill="#4d311e"/><path transform="matrix(.13657 0 0 .12325 353.64 650.86)" d="m0 0-206.33 76.752c-5.694 2.119-12.027-0.781-14.145-6.476-2.118-5.694 0.781-12.027 6.475-14.143l206.33-76.754c5.694-2.117 12.026 0.781 14.146 6.475 2.118 5.694-0.782 12.028-6.477 14.146" fill="#311d08"/><path transform="matrix(.13657 0 0 .12325 372.35 658.87)" d="m0 0-211.43-61.334c-5.834-1.693-9.192-7.795-7.499-13.63 1.694-5.836 7.795-9.192 13.63-7.499l211.43 61.334c5.834 1.692 9.192 7.795 7.499 13.63-1.692 5.834-7.794 9.192-13.629 7.499" fill="#301c0b"/><path transform="matrix(.13657 0 0 .12325 354.07 653.88)" d="m0 0-220.14 1.562c-6.075 0.043-11.035-4.846-11.078-10.921-0.043-6.077 4.847-11.036 10.922-11.078l220.14-1.563c6.076-0.042 11.035 4.847 11.079 10.923 0.042 6.075-4.848 11.034-10.922 11.077" fill="#37270a"/><path transform="matrix(.13657 0 0 .12325 365.82 662.77)" d="m0 0-317.54-105.44c-8.762-2.91-13.508-12.371-10.598-21.134 2.91-8.764 12.372-13.509 21.135-10.599l317.54 105.44c8.763 2.91 13.508 12.372 10.598 21.135-2.908 8.764-12.372 13.509-21.135 10.6" fill="#37290a"/><path transform="matrix(.13657 0 0 .12325 327.77 652.75)" d="m0 0c-13.073-9.1878-7.9623-28.046-3.6503-40.642 5.5412-17.564 24.186-42.516 44.402-28.131 72.592 31.259 145.1 62.759 217.65 94.111-10.504 24.278-21.008 48.556-31.512 72.834-75.631-32.724-151.26-65.448-226.89-98.172z" fill="#65391c"/><path transform="matrix(.13657 0 0 .12325 358.76 664.85)" d="m0 0c-8.4458-4.4835-8.6982-15.412-7.8568-23.801 1.8307-15.763 9.0369-31.003 20.203-42.289 5.0193-4.76 12.512-9.6945 19.571-6.5235 7.7228 4.3552 8.133 14.517 7.6304 22.37-2.0236 17.294-9.7337 34.564-23.214 45.912-4.4306 3.5226-10.65 6.7151-16.334 4.3321z" fill="#c87137"/><path transform="matrix(.10489 -.029505 .052338 .048161 360.77 659.81)" d="m0 0s-0.26 0.128-0.678 0.407c-0.416 0.282-0.973 0.738-1.582 1.359-0.284 0.325-0.624 0.662-0.912 1.068-0.15 0.2-0.307 0.405-0.457 0.623-0.138 0.226-0.279 0.455-0.422 0.689-0.301 0.463-0.517 0.988-0.778 1.508-0.196 0.54-0.436 1.086-0.597 1.652-0.141 0.566-0.369 1.127-0.472 1.698-0.117 0.567-0.273 1.133-0.282 1.684-0.014 0.551-0.01 1.086 0.036 1.589 0.076 0.499 0.165 0.969 0.263 1.398 0.175 0.858 0.512 1.534 0.722 2.005 0.223 0.466 0.389 0.719 0.389 0.719l0.218-0.039s0.089-0.298 0.18-0.798c0.047-0.25 0.091-0.55 0.13-0.889 0.027-0.171 0.032-0.348 0.051-0.535 0.03-0.19 0.063-0.386 0.087-0.59 0.052-0.408 0.09-0.844 0.112-1.302 0.061-0.457 0.105-0.932 0.117-1.427-0.012-0.497 0.048-0.998 0.033-1.524-0.021-0.529 0.085-1.044 0.14-1.574 0.075-0.526 0.223-1.032 0.334-1.546 0.178-0.487 0.284-1.001 0.487-1.456 0.096-0.234 0.188-0.462 0.277-0.686 0.109-0.218 0.212-0.429 0.315-0.636 0.192-0.423 0.44-0.785 0.646-1.137 0.231-0.332 0.44-0.648 0.656-0.899 0.203-0.265 0.406-0.471 0.562-0.655 0.334-0.348 0.546-0.521 0.546-0.521z" fill="#2b1606"/><path transform="matrix(.70849 0 0 .70849 -11.726 449.78)" d="m524.95 301.3c1.0686-0.51118 2.25-1.1345 3.5563-3.6041 0.81024-1.579 1.0557-4.1031 0.46442-4.1183-0.21784-0.29473-1.0087 0.22078-1.1347 0.69193 0.43469 0.13277 0.96823-0.078 0.66624 1.9344-0.49061 1.9105-0.95573 2.4777-1.5464 3.2065-0.69095 0.80314-1.3464 1.3322-1.9855 1.7843l-0.0124 0.0629z" fill="#28170b"/><path transform="matrix(.70849 0 0 .70849 -11.726 449.78)" d="m499.1 345.05c7.8045 0.41937 15.109-8.5889 10.753-15.624-3.0313-4.661-7.7224-9.1872-6.7304-15.224 0.0133-2.6201 1.9226-8.4107 3.106-2.8862 3.4261 3.8863 8.75 7.1168 10.101 11.954 7.174-8.2456 4.3698-22.529-5.7809-27.166-7.9449-3.7921-18.57 1.4039-19.908 10.029-1.8448 9.3641 2.376 18.202 7.482 25.482 2.28 3.618 4.7905 5.1718 3.9829 11.838-0.79965 0.81846-1.8612 1.4078-3.0059 1.5984z" clip-path="none" fill="#ddd650"/><path transform="matrix(.70849 0 0 .70849 -11.726 449.78)" d="m502.15 342.48c-5.0943-3.845-5.6092-12.221-3.2831-20.028 1.3983-4.6931 2.7611-8.0326-3.1328-11.611-2.9038 4.8421-5.0528 6.8552-7.9262 6.7381-8.4276-10.284-1.1502-28.084 12.534-29.143 9.9199-1.4311 20.189 7.1023 18.632 17.173-0.87278 11.048-10.561 18.384-15.002 27.877-1.489 3.7496-3.2048 2.271-1.8219 8.994z" clip-path="none" fill="#cb3e2f"/><path transform="matrix(.69402 0 0 .63523 -36.427 460.65)" d="m546.65 357.52c-2.3493-7.0965-0.97746-12.028 1.1686-19.36 1.2901-4.4076-1.3144-10.663-6.7521-14.023-2.679 4.5476-3.9901 6.9885-7.8164 8.8964 0.61992-16.446 2.4647-20.506 13.411-27.004 9.152-1.3441 15.94 7.9544 14.503 17.413-0.80522 10.376-5.378 12.68-9.475 21.595-1.3738 3.5215-4.132 5.6182-5.0389 12.483z" clip-path="none" fill="#cb592f"/><path transform="matrix(.70849 0 0 .70849 -11.726 449.78)" d="m524.39 314.48c-0.77416 4.363-5 7.1378-7.608 10.606-2.3287 2.7835-4.2556 6.212-3.7358 9.8-2.5027-4.802 0.22622-10.122 3.1436-14.219 2.8743-4.2348 6.2078-9.2899 4.3049-14.412-0.28305-1.537 2.1526 1.7401 2.4661 2.3278 1.0775 1.7912 1.6131 3.86 1.4293 5.8971z" fill="#cb5f0b"/><path transform="matrix(.077545 0 0 .12476 338.8 675.04)" d="m0 0c9.6331-5.9391 21.122-11.502 25.339-22.812 1.648-2.8531 1.0906-9.3478 0.82504-10.306 5.5444 12.794 2.0827 28.539-7.7232 38.311-6.3547 7.2938-15.436 12.057-20.118 20.788-3.3239 5.6168-5.6157 11.915-6.3242 18.408-4.9013-1.6493-8.6076-8.4996-9.8907-13.842-2.2609-8.4407 1.3209-17.402 7.7383-23.028 3.069-2.9025 6.5765-5.2928 10.154-7.5188z" fill="#cb8a2f"/><path transform="matrix(.13657 0 0 .12325 340.08 656.21)" d="m0 0c-10.844 0.676-20.743-16.506-22.109-38.377-1.366-21.873 6.318-40.152 17.164-40.829l246.74-15.407 4.944 79.206z" fill="#36200d"/><path transform="matrix(.70849 0 0 .70849 -11.726 449.78)" d="m536.04 287.56c-1.2758-0.5186-4.1821-2.061-4.1069-3.2313 0.0943-1.4698 5.5891-1.8792 5.993-2.0713 2.5527-1.2127-7.5857-5.85-4.8793-6.0797l9.0049 1.1441c0.74527 2.5581-6.7009-0.27487-8.319-0.33161-0.4216-0.0148 7.9016 5.3458 7.5413 5.4822-0.5911 0.22364-3.7258 0.2673-4.3038 0.54198-0.7852 0.37343-4.4808 0.80273-4.5154 1.3415-0.049 0.76411 2.7506 2.2185 3.4567 2.5051 2.0806 0.78375 6.1057 0.0427 8.6588-0.18473l0.11308 1.5232" fill="#2b1809"/><path transform="matrix(.13657 0 0 .12325 373.77 654.31)" d="m0 0c-10.844 0.678-22.236-16.506-23.6-38.377-1.367-21.873 7.8101-40.152 18.656-40.829 10.844-0.678 20.742 16.506 22.108 38.376 1.365 21.872-6.317 40.152-17.164 40.83" fill="#603d25"/><path transform="matrix(.13657 0 0 .12325 329.03 656.39)" d="m0 0c-15.311 0-27.723-25.033-27.723-55.913 0-30.879 12.412-55.912 27.723-55.912h235.48v111.82z" fill="#482a00"/><path transform="matrix(.13657 0 0 .13244 361.19 645.72)" d="m0.42661 2.8595c-16.824 2.054-35.285 2.376-51.655 8.067-25.408 8.834-49.556 26.278-76.351 21.701-13.415-2.291-26.738-13.585-38.801-19.022-8.142-3.668-16.561-7.461-25.091-10.127-22.361-6.991-47.041-6.466-69.171 1.241 0.581-2.524 1.251-4.948 2.004-7.251 11.184-3.433 22.891-5.204 34.603-5.204 11.666 0 23.327 1.718 34.446 5.194 8.892 2.78 17.487 6.652 25.802 10.399 12.237 5.515 23.797 10.725 36.418 12.88 25.192 4.312 49.559-4.162 75.351-13.129 16.962-5.895 34.331-11.915 52.019-13.957z" fill="#311c0b"/><path transform="matrix(.13657 0 0 .12325 325.36 651.18)" d="m0 0c42.121 1.755 82.045 6.6021 122.19 15.581 6.0188 1.3461 20.869 15.318 26.685 17.315 15.731 5.402 24.486 6.1689 40.571 9.4349h-25.086c-8.326-2.55-16.594-5.384-24.785-8.199-5.792-1.988-11.779-4.043-17.619-5.935-39.202-12.689-79.84-20.01-120.96-21.838-0.391-2.064-0.725-4.185-0.995-6.359" fill="#2f1e0b"/><path transform="matrix(.13657 0 0 .11428 352.05 653.86)" d="m0 0c-11.003-3.215-17.185-9.463-16.536-16.718 0.813-9.112 11.411-12.733 14.894-13.924 22.016-7.518 45.22-12.05 68.562-13.474v6.328c-22.649 1.414-45.161 5.817-66.522 13.113-6.772 2.315-6.7288 6.1234-7.0268 9.4634-0.423 4.737 7.8528 8.1453 13.943 9.9223 21.224 6.197 37.587 7.8483 59.606 6.4383v6.32c-22.623 1.399-45.119-1.104-66.92-7.469" fill="#2b1809"/><path transform="matrix(.13657 0 0 .12325 361.19 656.39)" d="m0 0c-10.345-0.38629-16.924-10.115-20.658-18.721-8.5351-20.099-8.8479-43.094-3.6674-64.091 2.939-10.145 7.4315-21.104 16.774-26.899 6.7801-4.3399 15.458-1.4262 20.415 4.2568 10.045 11.369 13.284 27.018 14.617 41.72 0.97564 17.741-1.181 36.496-10.468 51.981-3.8493 5.8244-9.4944 11.768-17.013 11.754z" fill="#784421"/><path transform="matrix(.13657 0 0 .16264 338.19 684.67)" d="m1.7065-15.763s18.604 17.126 11.508 49.943c-7.092 32.82-1.317 45.863 15.082 62.49 0 0-34.128-10.875-26.59-49.902 7.532-39.026 11.964-43.461 0-62.531" fill="#cb4d04"/><path transform="matrix(.13657 0 0 .12325 330.44 664.32)" d="m0 0s-19.123 34.735 15.804 83.245c0 0-52.115-32.593-15.804-83.245" fill="#c92f37"/><path transform="matrix(-.13657 0 0 .12325 354.02 680.78)" d="m40.102 24.581s12.446 37.571-16.619 70.955c0 0 21.263-39.211-6.4185-113.5" fill="#c92f37"/><path transform="matrix(.13657 0 0 .12325 358.95 646.49)" d="m0 0c-2.2907 21.193-4.3927 44.416 6.4532 63.732 7.0768 11.812 24.354 8.0816 27.826-4.7108 3.4183-5.7459 4.0988-20.941 1.3292-21.971-3.4523 9.8386-4.9248 20.579-18.096 21.264-11.345-3.7422-12.898-11.735-14.933-21.855-2.0152-12.014-2.2043-24.244-1.9172-36.395l-0.395-0.038187z" fill="#28170b"/><path transform="matrix(.12471 -.055678 .050249 .11255 362.38 651.17)" d="m0 0c4.657-2.9806 7.1103-8.3517 8.0712-13.631 0.84575-3.8632-0.044233-8.004-2.2322-11.276-1.1158 1.6197-0.45405 3.7232-0.84351 5.5497-0.19097 3.4153 0.37019 6.8887-0.5472 10.24-0.75238 3.278-2.2605 6.4412-4.6423 8.8492 0.064667 0.089333 0.12933 0.17867 0.194 0.268z" fill="#28170b"/><path transform="matrix(.13582 -.014268 .012877 .12258 375.2 651.23)" d="m0 0c1.9942-11.146 3.2165-22.686 1.1628-33.914-1.1422-5.5171-3.7525-11.733-9.3863-13.908-4.3489-1.6296-8.9287 1.3257-11.19 4.9704-3.4799 5.4325-4.8793 12.314-3.3943 18.629 1.3618-2.7135 1.417-6.2735 2.9126-9.1528 1.6439-3.772 3.7624-7.8091 7.4695-9.8906 3.0885-1.5419 6.1476 1.1596 7.7099 3.6367 3.5011 5.6836 4.0458 12.567 4.6242 19.063 0.459 6.8283 0.20839 13.684-0.34625 20.499 0.146 0.022333 0.292 0.044667 0.438 0.067z" fill="#2b1606"/><path transform="matrix(.11952 -.066081 .059638 .10787 373.19 649.01)" d="m0 0s-0.26 0.128-0.678 0.407c-0.416 0.282-0.973 0.738-1.582 1.359-0.284 0.325-0.624 0.662-0.912 1.068-0.15 0.2-0.307 0.405-0.457 0.623-0.138 0.226-0.279 0.455-0.422 0.689-0.301 0.463-0.517 0.988-0.778 1.508-0.196 0.54-0.436 1.086-0.597 1.652-0.141 0.566-0.369 1.127-0.472 1.698-0.117 0.567-0.273 1.133-0.282 1.684-0.014 0.551-0.01 1.086 0.036 1.589 0.076 0.499 0.165 0.969 0.263 1.398 0.175 0.858 0.512 1.534 0.722 2.005 0.223 0.466 0.389 0.719 0.389 0.719l0.218-0.039s0.089-0.298 0.18-0.798c0.047-0.25 0.091-0.55 0.13-0.889 0.027-0.171 0.032-0.348 0.051-0.535 0.03-0.19 0.063-0.386 0.087-0.59 0.052-0.408 0.09-0.844 0.112-1.302 0.061-0.457 0.105-0.932 0.117-1.427-0.012-0.497 0.048-0.998 0.033-1.524-0.021-0.529 0.085-1.044 0.14-1.574 0.075-0.526 0.223-1.032 0.334-1.546 0.178-0.487 0.284-1.001 0.487-1.456 0.096-0.234 0.188-0.462 0.277-0.686 0.109-0.218 0.212-0.429 0.315-0.636 0.192-0.423 0.44-0.785 0.646-1.137 0.231-0.332 0.44-0.648 0.656-0.899 0.203-0.265 0.406-0.471 0.562-0.655 0.334-0.348 0.546-0.521 0.546-0.521z" fill="#2b1606"/></g><g transform="matrix(.70849 0 0 .70849 -8.5801 333.6)"><path transform="translate(153.94 281.21)" d="m0 0c0.188-2.74 2.257-4.9 4.783-4.9h122.29c2.529 0 4.596 2.16 4.785 4.9z" fill="#162d50"/><path transform="matrix(1.0143 0 0 .9483 287.01 289.05)" d="m0 0c0-4.51-3.656-8.166-8.166-8.166h-115.14c-4.509 0-8.166 3.656-8.166 8.166v82.068c0 4.51 3.657 8.166 8.166 8.166h115.14c4.51 0 8.166-3.656 8.166-8.166z" fill="#aaf"/><path transform="matrix(1 0 0 .9483 286.07 288.26)" d="m0 0c0-4.51-3.656-8.166-8.166-8.166h-115.14c-4.509 0-8.166 3.656-8.166 8.166v82.068c0 4.51 3.657 8.166 8.166 8.166h115.14c4.51 0 8.166-3.656 8.166-8.166z" fill="#162d50"/><path transform="translate(229.81 330.33)" d="m9.8442 0s-5.9896-9.6916-18.885-9.799c-12.886-0.10728-18.887 9.799-18.887 9.799s8.3331-5.9019 18.766-5.9019c10.429 0 19.007 5.9019 19.007 5.9019" fill="#e2fffb" opacity=".52525"/><path transform="matrix(1 0 0 .94558 249 290.56)" d="m0 0c-42.62 0-78.683 12.329-78.683 44.349 0 10.896 2.8691 31.312 25.729 43.428h-32.9c-4.51 0-8.5446-3.656-8.5446-8.166v-82.068c0-4.51 3.656-8.166 8.166-8.166h115.14c4.51 0 8.2634 3.6571 8.166 8.166l-0.37862 17.527c-11.003-4.537-23.257-15.07-36.694-15.07" fill="#354e6d"/><rect transform="matrix(1 0 0 -1 4.3468e-7 -3.2021e-6)" x="224.56" y="-339.41" width="4.9999" height="4.8275" fill="#e2fffb" opacity=".52525"/><rect transform="scale(1,-1)" x="210.81" y="-339.36" width="4.9999" height="4.8275" fill="#e2fffb" opacity=".52525"/></g><g transform="translate(0 1.9153e-5)"><path transform="matrix(.70849 0 0 .61827 .82988 591.1)" d="m0 0c0.43614 19.531 1.2285 40.269 11.214 57.615 2.4509 4.4765 13.577 16.189 13.538 5.2662 0.37832-16.624-8.2092-31.6-11.332-47.597 4.6047 8.7687 6.5898 19.655 14.731 26.052 6.8914 3.4861 1.8794-9.9567 0.79688-13.651-4.0999-11.376-11.413-21.554-13.741-33.556 7.2435 15.228 11.691 33.137 25.424 44.105 4.2793 3.5865 13.245 7.1234 9.071-1.5058-5.027-19.752-19.864-35.215-25.328-54.796 2.3198 6.1176 10.038 18.322 13.956 17.244-1.4881-8.2595-4.932-15.994-8.384-23.588 8.5362 9.0518 11.662 22.331 22.164 29.721 6.181 4.7432 12.725 10.71 20.889 11.087 9.4744-3.4454-0.24766-14.722-3.6553-19.789-11.166-14.683-24.743-27.251-37.434-40.561 13.092 11.012 25.032 24.14 40.82 31.354 6.5718 4.4696 13.779-2.6373 5.8604-7.3034-9.1992-8.4853-19.87-15.182-30.493-21.718 17.596 7.2254 32.94 19.881 51.741 24.256 7.2983 3.4976 17.161-5.3914 7.4776-10.325-14.992-11.057-32.759-17.361-49.048-26.148 15.018-0.21263 27.661 13.004 42.941 9.8742 5.9775-3.3781-6.1494-11.325-10.266-13.551-3.7765-1.4713-7.1662-2.3323-1.1965-1.9195 14.006 1.1642 28.486 5.4641 42.366 1.3947 10.513-3.0471 6.7718-16.995-2.9133-17.757-10.966-3.3116-22.465-4.484-33.247-8.5286-12.971-3.9403-25.876-8.0975-38.709-12.467 15.918-4.3422 33.946 3.4023 48.585-6.34-4.1238-2.6824-14.356-2.5574-15.18-5.1572 14.836-2.197 29.816 4.2243 44.614 0.93157 5.9387-1.3881 5.9046-6.4183-0.60803-5.5243-10.47-1.2558-21.318 0.16348-31.482-3.2141 8.3948-3.198 18.689-1.1247 26.005-7.1177 6.2104-6.5187-1.8498-14.189-8.0224-16.552-9.531-4.3783-19.677-7.3798-28.6-13.048-16.665-8.906-34.401-19.749-54.065-17.869-16.816 1.7346-27.851 16.898-33.014 31.774-9.0107 25.747-9.8716 53.519-9.409 80.523 1.2765 15.1 6.0242 30.142 2.941 45.363-0.43088 4.3525-0.3315 8.8215 0.992 13.025z" fill="#545127"/><path transform="matrix(-.53934 0 0 .49661 6.3984 580.71)" d="m0.82205-71.743c-1.1582 15.304-6.9392 51.5-14.109 26.722-6.0464 23.402 4.2316 39.034-2.6136 38.845-5.769 9.2381-20.394-28.691-12.613-41.034 1.1485 12.908-20.155 27.925-22.81 13.196 5.9841-20.651 21.231-51.585 17.964-39.348-5.7817 20.839-23.21 16.395-10.998-0.14868-22.111 7.5636-8.895-8.8929-10.791-21.368-15.062 28.996-32.408 25.282-21.462 8.9572-7.4415 2.6532-40.373 28.462-32.146 14.293 14.905-30.889 30.094-25.866 41.842-39.621 3.6534-2.5667-10.83 2.738-18.608 5.2968-28.822 5.759-12.943-15.483-11.346-20.1-49.197-2.8788-23.097-13.461-12.009-14.736 3.2547-10.541-8.8655-12.019-0.33817-17.8 25.436-14.228 52.7-25.775 81.223-32.059 15.129-2.9192 34.365-4.615 45.228 8.7625 13.206 17.393 13.596 40.582 14.036 61.5 16.503 69.634-26.506 34.833-30.45 48.641z" fill="#818427"/></g><g><path transform="matrix(.70849 0 0 .477 590.38 620.87)" d="m0 0c-0.82139 10.647-2.3766 23.066-10.802 30.528-24.422 8.5941 8.2661-52.628-10.696-38.28-4.2328-16.809 2.2155-69.453 3.2886-86.785-15.346 6.6538-3.2264 73.725-26.385 71.906-10.912-17.565-3.2375-79.48-12.777-4.0058-7.3264 21.638 1.4616 22.535-11.138 41.847-9.9513 14.01-8.6256-15.516-3.7726-23.672 3.9464-17.023-2.0153-20.375-0.39557-38.961-5.5655 9.5972-6.6376 23.001-20.286 23.081-6.9166-3.6989 7.5776-27.243-2.0211-16.272-16.063 10.971-14.607-8.0418-9.7898-16.315 5.3098-13.419 18.315-36.008 24.984-48.733-8.0037 8.978-24.268-4.9342-32.961-14.638 8.4153-11.22 14.163 30.885 10.994 33.913-9.236 10.077 1.5792 26.772-13.597 25.098-2.9387-7.0492-1.3016-40.345-6.7007-33.442-5.4379 4.8101 9.4597 7.0636-4.233 23.602-4.9344-1.9309-14.774-35.003-3.0899-44.861 8.3581-6.561 1.1397-15.164 10.073-20.906-5.4827-0.32513-34.946-9.0323-45.452-27.392 10.515 84.771-16.922 42.319-35.328-8.406-6.2364-4.1743 18.005 35.35-1.1222 56.032-3.7219 4.0244-17.95 3.0499-20.902-26.462-1.3853-13.85 6.1254-61.034 6.6361-67.437-18.293 14.184-2.1379 43.147-12.538 61.883-2.9321 5.2822-6.1529-13.911-6.0089-8.8381 0.69558 24.494-4.4575 27.412-11.657 30.416-5.4147 2.2595 1.1802-71.94 0.67783-69.9-5.5888 22.697-18.456 34.085-19.325 25.762-0.6782-6.4973 10.591-25.418 15.306-37.357 1.325-3.3545-15.028 23.516-16.313 10.73-0.96458-9.598 0.56144-8.8823 4.5569-18.01-41.05 25.318-16.132-27.994-2.8103-44.341 10.54-11.973 112.86-23.795 127.28-29.925 41.719-15.691 86.546-20.124 130.57-24.549 15.624-1.6219 33.061 2.8259 42.155 16.611 16.551 24.089 17.444 54.499 18.972 82.678 1.9769 48.565-0.42017 98.445-16.961 144.58-9.9766 25.018-24.95 47.633-38.433 70.822z" fill="#545127"/><path d="m504.02 525.05c-4.7463 0.86521-8.0628-3.7348-11.667-6.0251-5.648-4.7024 0.01 4.1993 2.1575 5.5696 4.6855 4.1688 6.8583 10.765 5.4607 16.857-1.8579 5.358-11.063 5.76-13.552 2.3181-5.0296-2.4454-6.7041-13.673-9.7136-14.737 0.63033 4.8547-2.9153 6.4157-5.3571 1.952-3.3926-1.0167 0.89187 7.0892-0.21635 9.8141 0.14517 4.8608-0.82057 6.5631-4.6173 6.976-2.0506 2.3817-3.4359-3.9729-6.8918-10.706-0.48877-4.6805-2.0761 6.0394-7.9376 5.5298-0.64009-5.4983 2.5524-11.341 2.9199-17.049 0.12378-0.94943-1.8504 6.0915-4.0633 7.5074-4.928 5.9672-6.5954-2.743-4.7506-6.6487-3.4841-0.9783-6.5448 14.242-11.168 7.8246-0.11248-3.0783-1.0997-22.022-4.1157-16.889-3.6474 3.7511-9.9909 7.1672-14.72 3.1999-4.6868-4.2301 0.11907-10.65 2.1421-15.06 2.0913-6.3501 8.7496 2.8063 14.468-0.16533 18.003-0.2722 30.506-3.4297 46.064 0.12788 9.8383 2.3871 21.497 2.8999 24.775 13.267 0.6413 2.0417 0.91445 4.1995 0.78308 6.3362z" fill="#818427"/><path transform="matrix(.70849 0 0 .477 591.34 578.12)" d="m0 0c3.4609 18.067 5.8266 36.962 2.3344 55.199-1.1582 15.304-19.686 9.9682-21.671-1.9043-7.1267-18.365-7.8674-38.398-9.3112-57.829-0.36768-14.226 0.99479-28.456 0.13386-42.676 1.1485 12.908-3.6867 50.789-13.039 58.821-6.547-3.2874-2.5839-47.699-5.8509-35.462-5.7817 20.839 1.0374 32.65-15.702 47.314-4.8269 4.0439-13.199-4.3675-10.342-16.373 1.1373-24.391-9.0026-21.852 4.4854-42.071 2.2131-3.2744-1.255-4.5777-3.4258-0.29479-3.7036 6.3141-11.08 10.948-6.4291-3.3552 1.3234-6.3979-0.78604-5.4396-1.1686-8.3916-15.412 24.1-11.119 14.657-19.655 19.133-6.3503 0.83392-3.9773-3.5175-6.2118-9.3882 4.2253-15.002-10.376 19.918-13.588-1.112 1.5732-9.9329 0.99162-10.229 18.691-19.063-7.4416 2.6532-10.199-0.33833-11.262-9.3452 4.0874-4.0728 23.102-13.389 23.809-15.357-7.5615 5.9078-27.468 2.757-17.818-9.3816 3.6534-2.5667 14.232-11.81 4.7261-5.2622-14.187 10.124-25.599-5.0585-10.134-20.268-11.624-3.8048-10.868-1.936-20.14-11.957-5.9049-7.4349-6.5319-7.7379-0.64345-8.0068 3.2547-10.541 14.468-15.774 22.996-21.555 25.436-14.228 52.7-25.775 81.223-32.059 15.129-2.9192 34.365-4.615 45.228 8.7625 13.206 17.393 13.596 40.582 14.036 61.5-0.58274 20.133-1.0575 40.466-4.7935 60.306-4.6679 21.609-15.892 40.941-26.478 60.078z" fill="#818427"/></g></g><rect transform="matrix(1 0 0 -1 1.3258e-7 1.8889e-5)" x="9.2886" y="-1323.4" width="576.21" height="584.04" display="none" fill="#7d9ca7" opacity=".5" stroke-width=".72598"/></g></svg>
